<svg width="60" height="60" fill="none" id="svg-879010609_663"><path d="M30 51.178a11.508 11.508 0 0 0 6.424 1.947c5.28 0 9.735-3.54 11.118-8.377A8.996 8.996 0 0 0 50.426 30a8.994 8.994 0 0 0-5.32-15.364c-1.123-4.46-5.16-7.761-9.967-7.761-1.872 0-3.627.5-5.139 1.375m0 42.928a11.508 11.508 0 0 1-6.424 1.947c-5.28 0-9.735-3.54-11.118-8.377A8.996 8.996 0 0 1 9.574 30a8.994 8.994 0 0 1 5.32-15.364c1.123-4.46 5.16-7.761 9.967-7.761 1.872 0 3.627.5 5.139 1.375m0 42.928V8.25m-8.125 26.125A8.125 8.125 0 0 1 30 42.5m8.125-16.875A8.125 8.125 0 0 1 30 17.5" stroke="#000" style="stroke:#000;stroke-opacity:1" stroke-width="5" stroke-linecap="round"></path></svg>