<svg width="60" height="60" fill="none" id="svg-1201243516_1414"><g clip-path="url(#svg-1201243516_1414_a)" fill="#111"><path fill-rule="evenodd" clip-rule="evenodd" d="M7.01 12.5C5 15.98 5 20.654 5 30s0 14.02 2.01 17.5a15 15 0 0 0 5.49 5.49C15.98 55 20.654 55 30 55s14.02 0 17.5-2.01a15 15 0 0 0 5.49-5.49C55 44.02 55 39.346 55 30s0-14.02-2.01-17.5a15 15 0 0 0-5.49-5.49C44.02 5 39.346 5 30 5S15.98 5 12.5 7.01a15 15 0 0 0-5.49 5.49Zm4.626 7.824C10 22.376 10 25.394 10 31.429c0 8.047 0 12.07 2.182 14.806a9.993 9.993 0 0 0 1.583 1.583C16.501 50 20.525 50 28.571 50h2.858c8.047 0 12.07 0 14.806-2.182a9.993 9.993 0 0 0 1.583-1.583C50 43.499 50 39.475 50 31.429c0-6.036 0-9.053-1.636-11.105a7.498 7.498 0 0 0-1.188-1.188C45.124 17.5 42.106 17.5 36.071 17.5H23.93c-6.036 0-9.053 0-11.105 1.636-.44.35-.838.749-1.188 1.188Z" style="fill:color(display-p3 .0667 .0667 .0667);fill-opacity:1"></path><circle cx="26.25" cy="26.25" r="3.75" style="fill:color(display-p3 .0667 .0667 .0667);fill-opacity:1"></circle><circle cx="36.25" cy="26.25" r="3.75" style="fill:color(display-p3 .0667 .0667 .0667);fill-opacity:1"></circle><circle cx="16.25" cy="36.25" r="3.75" style="fill:color(display-p3 .0667 .0667 .0667);fill-opacity:1"></circle><circle cx="26.25" cy="36.25" r="3.75" style="fill:color(display-p3 .0667 .0667 .0667);fill-opacity:1"></circle></g></svg>